# xmcd CD database file
#
# Track frame offsets:
#	150
#	12906
#	25844
#	38871
#	53590
#	68368
#	80683
#	94705
#	108437
#	120842
#	132657
#	142519
#	152712
#	165588
#	178204
#	192852
#	208941
#	224305
#	237767
#	252619
#	264370
#	278180
#	290371
#	301466
#
# Disc length: 4247 seconds
#
# Revision: 0
# Processed by: cddbd v1.5.2PL0 Copyright (c) Steve Scherf et al.
# Submitted via: CDex 1.51
#
DISCID=4e109518
DTITLE=Forster, Stephen - Stephen Forster in Contrast - 1
DYEAR=1850
DGENRE=Blues
TTITLE0=Bing Crosby - I Dream of Jeanie with the Light Brown Hair
TTITLE1=Bing Crosby - Nell and I
TTITLE2=Bing Crosby - Beautiful Dreamer
TTITLE3=Bing Crosby - Sweetly She Sleeps, My Alice Fair
TTITLE4=Bing Crosby - My Old Kentuck Home
TTITLE5=Bing Crosby - De Camp Town Races
TTITLE6=Bing Crosby - Swanee River (Old Folks at Home)
TTITLE7=Bing Crosby - Old Black Joe
TTITLE8=Robert Farnon Octet - I Dream of Jeanie with the Light Brown Hair
TTITLE9=Robert Farnon Octet - Swanee River (Old Folks at Home)
TTITLE10=Robert Farnon Octet - De Camp Town Races
TTITLE11=Robert Farnon Octet - Oh! Suzannah
TTITLE12=Robert Farnon Octet - Come Where My Love Lies Dreaming
TTITLE13=Robert Farnon Octet - Beautiful Dreamer
TTITLE14=Sammy Kaye and his Orch - My Old Kentucky Home
TTITLE15=Sammy Kaye and his Orch - Old Folks At Home (Swanee River)
TTITLE16=Sammy Kaye and his Orch - Beautiful Dreamer
TTITLE17=Sammy Kaye and his Orch - Old Black Joe
TTITLE18=Sammy Kaye and his Orch - I Dream Of Jeanie with Light Brown Hair
TTITLE19=Sammy Kaye and his Orch - Massa's In De Cold, Cold Ground
TTITLE20=Sammy Kaye and his Orch - Come Where My Love Lies Dreaming
TTITLE21=Sammy Kaye and his Orch - Oh! Suzannah
TTITLE22=Sammy Kaye and his Orch - De Camp Town Races
TTITLE23=Sammy Kaye and his Orch - Medley Swanee River Old Black Joe
EXTD=YEAR: 1850
EXTT0=
EXTT1=
EXTT2=
EXTT3=
EXTT4=
EXTT5=
EXTT6=
EXTT7=
EXTT8=
EXTT9=
EXTT10=
EXTT11=
EXTT12=
EXTT13=
EXTT14=
EXTT15=
EXTT16=
EXTT17=
EXTT18=
EXTT19=
EXTT20=
EXTT21=
EXTT22=
EXTT23=
PLAYORDER=
